<svg xmlns="http://www.w3.org/2000/svg" width="480" height="360" viewBox="0 0 480 360"><rect width="100%" height="100%" fill="white"/><defs><radialGradient id="a6" cx="32%" cy="25%" r="75%"><stop offset="0" stop-color="#fff"/><stop offset=".35" stop-color="#586575"/><stop offset="1" stop-color="#586575"/></radialGradient><radialGradient id="a7" cx="32%" cy="25%" r="75%"><stop offset="0" stop-color="#fff"/><stop offset=".35" stop-color="#2867bc"/><stop offset="1" stop-color="#2867bc"/></radialGradient><radialGradient id="a8" cx="32%" cy="25%" r="75%"><stop offset="0" stop-color="#fff"/><stop offset=".35" stop-color="#c9434c"/><stop offset="1" stop-color="#c9434c"/></radialGradient><radialGradient id="a16" cx="32%" cy="25%" r="75%"><stop offset="0" stop-color="#fff"/><stop offset=".35" stop-color="#b48a16"/><stop offset="1" stop-color="#b48a16"/></radialGradient><radialGradient id="a34" cx="32%" cy="25%" r="75%"><stop offset="0" stop-color="#fff"/><stop offset=".35" stop-color="#bf6923"/><stop offset="1" stop-color="#bf6923"/></radialGradient></defs><circle cx="307.16" cy="270.01" r="15.68" fill="url(#a8)" stroke="#c9434c" stroke-width="1"/><text x="307.16" y="270.41" text-anchor="middle" dominant-baseline="central" fill="white" font-family="Arial,sans-serif" font-size="20.38" font-weight="bold">O</text><path d="M293.36,256.64 L296.80,259.97" stroke="#8995a3" stroke-width="5" stroke-linecap="round"/><path d="M222.67,86.42 L206.48,88.16" stroke="#8995a3" stroke-width="5" stroke-linecap="round"/><path d="M206.48,88.16 L190.28,89.89" stroke="#8995a3" stroke-width="5" stroke-linecap="round"/><path d="M190.28,89.89 L174.09,91.63" stroke="#8995a3" stroke-width="5" stroke-linecap="round"/><path d="M174.09,91.63 L157.89,93.36" stroke="#8995a3" stroke-width="5" stroke-linecap="round"/><path d="M157.89,93.36 L141.70,95.09" stroke="#8995a3" stroke-width="5" stroke-linecap="round"/><path d="M141.70,95.09 L125.50,96.83" stroke="#8995a3" stroke-width="5" stroke-linecap="round"/><circle cx="235.48" cy="85.05" r="14.00" fill="url(#a6)" stroke="#586575" stroke-width="1"/><circle cx="111.16" cy="98.36" r="15.68" fill="url(#a34)" stroke="#bf6923" stroke-width="1"/><text x="111.16" y="98.76" text-anchor="middle" dominant-baseline="central" fill="white" font-family="Arial,sans-serif" font-size="20.38" font-weight="bold">Se</text><path d="M289.92,253.31 L293.36,256.64" stroke="#8995a3" stroke-width="5" stroke-linecap="round"/><path d="M247.93,100.30 L243.63,95.03" stroke="#8995a3" stroke-width="5" stroke-linecap="round"/><path d="M286.49,249.98 L289.92,253.31" stroke="#8995a3" stroke-width="5" stroke-linecap="round"/><path d="M252.24,105.56 L247.93,100.30" stroke="#8995a3" stroke-width="5" stroke-linecap="round"/><path d="M283.05,246.66 L286.49,249.98" stroke="#8995a3" stroke-width="5" stroke-linecap="round"/><path d="M256.55,110.83 L252.24,105.56" stroke="#8995a3" stroke-width="5" stroke-linecap="round"/><path d="M279.61,243.33 L283.05,246.66" stroke="#8995a3" stroke-width="5" stroke-linecap="round"/><path d="M260.85,116.10 L256.55,110.83" stroke="#8995a3" stroke-width="5" stroke-linecap="round"/><path d="M276.17,240.00 L279.61,243.33" stroke="#8995a3" stroke-width="5" stroke-linecap="round"/><path d="M265.16,121.37 L260.85,116.10" stroke="#8995a3" stroke-width="5" stroke-linecap="round"/><circle cx="266.92" cy="231.04" r="14.00" fill="url(#a6)" stroke="#586575" stroke-width="1"/><path d="M269.67,206.77 L268.37,218.24" stroke="#8995a3" stroke-width="5" stroke-linecap="round"/><path d="M270.97,195.30 L269.67,206.77" stroke="#8995a3" stroke-width="5" stroke-linecap="round"/><path d="M260.24,242.13 L255.80,246.39" stroke="#8995a3" stroke-width="5" stroke-linecap="round"/><path d="M255.54,237.22 L251.10,241.48" stroke="#8995a3" stroke-width="5" stroke-linecap="round"/><path d="M272.27,183.83 L270.97,195.30" stroke="#8995a3" stroke-width="5" stroke-linecap="round"/><path d="M273.57,172.36 L272.27,183.83" stroke="#8995a3" stroke-width="5" stroke-linecap="round"/><path d="M269.46,126.64 L265.16,121.37" stroke="#8995a3" stroke-width="5" stroke-linecap="round"/><path d="M274.87,160.88 L273.57,172.36" stroke="#8995a3" stroke-width="5" stroke-linecap="round"/><path d="M255.80,246.39 L251.35,250.64" stroke="#8995a3" stroke-width="5" stroke-linecap="round"/><path d="M251.10,241.48 L246.65,245.73" stroke="#8995a3" stroke-width="5" stroke-linecap="round"/><path d="M276.16,149.41 L274.87,160.88" stroke="#8995a3" stroke-width="5" stroke-linecap="round"/><path d="M300.94,131.35 L290.18,133.78" stroke="#8995a3" stroke-width="5" stroke-linecap="round"/><circle cx="277.61" cy="136.61" r="14.00" fill="url(#a6)" stroke="#586575" stroke-width="1"/><path d="M311.71,128.93 L300.94,131.35" stroke="#8995a3" stroke-width="5" stroke-linecap="round"/><path d="M322.47,126.50 L311.71,128.93" stroke="#8995a3" stroke-width="5" stroke-linecap="round"/><path d="M333.24,124.07 L322.47,126.50" stroke="#8995a3" stroke-width="5" stroke-linecap="round"/><path d="M344.00,121.64 L333.24,124.07" stroke="#8995a3" stroke-width="5" stroke-linecap="round"/><path d="M354.77,119.21 L344.00,121.64" stroke="#8995a3" stroke-width="5" stroke-linecap="round"/><circle cx="368.84" cy="116.04" r="15.68" fill="url(#a7)" stroke="#2867bc" stroke-width="1"/><text x="368.84" y="116.44" text-anchor="middle" dominant-baseline="central" fill="white" font-family="Arial,sans-serif" font-size="20.38" font-weight="bold">N</text><path d="M251.35,250.64 L246.90,254.90" stroke="#8995a3" stroke-width="5" stroke-linecap="round"/><path d="M246.65,245.73 L242.20,249.99" stroke="#8995a3" stroke-width="5" stroke-linecap="round"/><path d="M246.90,254.90 L242.45,259.16" stroke="#8995a3" stroke-width="5" stroke-linecap="round"/><path d="M242.20,249.99 L237.75,254.24" stroke="#8995a3" stroke-width="5" stroke-linecap="round"/><path d="M242.45,259.16 L238.00,263.41" stroke="#8995a3" stroke-width="5" stroke-linecap="round"/><path d="M237.75,254.24 L233.30,258.50" stroke="#8995a3" stroke-width="5" stroke-linecap="round"/><path d="M238.00,263.41 L233.56,267.67" stroke="#8995a3" stroke-width="5" stroke-linecap="round"/><path d="M233.30,258.50 L228.85,262.75" stroke="#8995a3" stroke-width="5" stroke-linecap="round"/><circle cx="221.03" cy="274.95" r="15.68" fill="url(#a8)" stroke="#c9434c" stroke-width="1"/><text x="221.03" y="275.35" text-anchor="middle" dominant-baseline="central" fill="white" font-family="Arial,sans-serif" font-size="20.38" font-weight="bold">O</text></svg>
