<svg xmlns="http://www.w3.org/2000/svg" width="480" height="360" viewBox="0 0 480 360"><rect width="100%" height="100%" fill="white"/><defs><radialGradient id="a6" cx="32%" cy="25%" r="75%"><stop offset="0" stop-color="#fff"/><stop offset=".35" stop-color="#586575"/><stop offset="1" stop-color="#586575"/></radialGradient><radialGradient id="a7" cx="32%" cy="25%" r="75%"><stop offset="0" stop-color="#fff"/><stop offset=".35" stop-color="#2867bc"/><stop offset="1" stop-color="#2867bc"/></radialGradient><radialGradient id="a8" cx="32%" cy="25%" r="75%"><stop offset="0" stop-color="#fff"/><stop offset=".35" stop-color="#c9434c"/><stop offset="1" stop-color="#c9434c"/></radialGradient><radialGradient id="a16" cx="32%" cy="25%" r="75%"><stop offset="0" stop-color="#fff"/><stop offset=".35" stop-color="#b48a16"/><stop offset="1" stop-color="#b48a16"/></radialGradient><radialGradient id="a34" cx="32%" cy="25%" r="75%"><stop offset="0" stop-color="#fff"/><stop offset=".35" stop-color="#bf6923"/><stop offset="1" stop-color="#bf6923"/></radialGradient></defs><circle cx="361.35" cy="163.85" r="14.00" fill="url(#a6)" stroke="#586575" stroke-width="1"/><path d="M345.98,177.82 L351.82,172.51" stroke="#8995a3" stroke-width="5" stroke-linecap="round"/><path d="M340.15,183.12 L345.98,177.82" stroke="#8995a3" stroke-width="5" stroke-linecap="round"/><path d="M334.31,188.43 L340.15,183.12" stroke="#8995a3" stroke-width="5" stroke-linecap="round"/><path d="M328.47,193.73 L334.31,188.43" stroke="#8995a3" stroke-width="5" stroke-linecap="round"/><path d="M322.63,199.04 L328.47,193.73" stroke="#8995a3" stroke-width="5" stroke-linecap="round"/><path d="M316.80,204.34 L322.63,199.04" stroke="#8995a3" stroke-width="5" stroke-linecap="round"/><circle cx="307.26" cy="213.01" r="14.00" fill="url(#a6)" stroke="#586575" stroke-width="1"/><path d="M314.33,223.78 L320.38,233.01" stroke="#8995a3" stroke-width="5" stroke-linecap="round"/><path d="M299.00,195.07 L301.87,201.31" stroke="#8995a3" stroke-width="5" stroke-linecap="round"/><path d="M320.38,233.01 L326.44,242.24" stroke="#8995a3" stroke-width="5" stroke-linecap="round"/><path d="M326.44,242.24 L332.49,251.48" stroke="#8995a3" stroke-width="5" stroke-linecap="round"/><path d="M296.12,188.82 L299.00,195.07" stroke="#8995a3" stroke-width="5" stroke-linecap="round"/><path d="M332.49,251.48 L338.55,260.71" stroke="#8995a3" stroke-width="5" stroke-linecap="round"/><path d="M338.55,260.71 L344.60,269.94" stroke="#8995a3" stroke-width="5" stroke-linecap="round"/><path d="M293.24,182.58 L296.12,188.82" stroke="#8995a3" stroke-width="5" stroke-linecap="round"/><path d="M344.60,269.94 L350.65,279.17" stroke="#8995a3" stroke-width="5" stroke-linecap="round"/><circle cx="357.72" cy="289.94" r="14.00" fill="url(#a6)" stroke="#586575" stroke-width="1"/><path d="M290.37,176.34 L293.24,182.58" stroke="#8995a3" stroke-width="5" stroke-linecap="round"/><path d="M287.49,170.09 L290.37,176.34" stroke="#8995a3" stroke-width="5" stroke-linecap="round"/><path d="M284.61,163.85 L287.49,170.09" stroke="#8995a3" stroke-width="5" stroke-linecap="round"/><circle cx="279.22" cy="152.15" r="14.00" fill="url(#a6)" stroke="#586575" stroke-width="1"/><path d="M262.36,163.60 L268.57,159.39" stroke="#8995a3" stroke-width="5" stroke-linecap="round"/><path d="M256.15,167.82 L262.36,163.60" stroke="#8995a3" stroke-width="5" stroke-linecap="round"/><path d="M249.94,172.04 L256.15,167.82" stroke="#8995a3" stroke-width="5" stroke-linecap="round"/><circle cx="141.48" cy="226.26" r="15.68" fill="url(#a7)" stroke="#2867bc" stroke-width="1"/><text x="141.48" y="226.66" text-anchor="middle" dominant-baseline="central" fill="white" font-family="Arial,sans-serif" font-size="20.38" font-weight="bold">N</text><path d="M154.72,220.52 L163.74,216.61" stroke="#8995a3" stroke-width="5" stroke-linecap="round"/><path d="M163.74,216.61 L172.76,212.70" stroke="#8995a3" stroke-width="5" stroke-linecap="round"/><path d="M243.73,176.25 L249.94,172.04" stroke="#8995a3" stroke-width="5" stroke-linecap="round"/><path d="M172.76,212.70 L181.78,208.78" stroke="#8995a3" stroke-width="5" stroke-linecap="round"/><path d="M237.52,180.47 L243.73,176.25" stroke="#8995a3" stroke-width="5" stroke-linecap="round"/><path d="M181.78,208.78 L190.80,204.87" stroke="#8995a3" stroke-width="5" stroke-linecap="round"/><path d="M190.80,204.87 L199.82,200.96" stroke="#8995a3" stroke-width="5" stroke-linecap="round"/><path d="M231.31,184.68 L237.52,180.47" stroke="#8995a3" stroke-width="5" stroke-linecap="round"/><path d="M199.82,200.96 L208.84,197.05" stroke="#8995a3" stroke-width="5" stroke-linecap="round"/><circle cx="220.66" cy="191.92" r="14.00" fill="url(#a6)" stroke="#586575" stroke-width="1"/><path d="M216.70,179.66 L214.41,172.59" stroke="#8995a3" stroke-width="5" stroke-linecap="round"/><path d="M214.41,172.59 L212.13,165.52" stroke="#8995a3" stroke-width="5" stroke-linecap="round"/><path d="M212.13,165.52 L209.84,158.45" stroke="#8995a3" stroke-width="5" stroke-linecap="round"/><path d="M209.84,158.45 L207.56,151.38" stroke="#8995a3" stroke-width="5" stroke-linecap="round"/><path d="M207.56,151.38 L205.27,144.31" stroke="#8995a3" stroke-width="5" stroke-linecap="round"/><path d="M205.27,144.31 L202.99,137.24" stroke="#8995a3" stroke-width="5" stroke-linecap="round"/><circle cx="199.03" cy="124.98" r="14.00" fill="url(#a6)" stroke="#586575" stroke-width="1"/><path d="M204.64,113.31 L209.67,107.51" stroke="#8995a3" stroke-width="5" stroke-linecap="round"/><path d="M209.78,117.77 L214.81,111.96" stroke="#8995a3" stroke-width="5" stroke-linecap="round"/><path d="M186.21,126.24 L177.34,127.12" stroke="#8995a3" stroke-width="5" stroke-linecap="round"/><path d="M209.67,107.51 L214.70,101.70" stroke="#8995a3" stroke-width="5" stroke-linecap="round"/><path d="M214.81,111.96 L219.84,106.15" stroke="#8995a3" stroke-width="5" stroke-linecap="round"/><path d="M177.34,127.12 L168.47,127.99" stroke="#8995a3" stroke-width="5" stroke-linecap="round"/><path d="M214.70,101.70 L219.74,95.89" stroke="#8995a3" stroke-width="5" stroke-linecap="round"/><path d="M219.84,106.15 L224.88,100.35" stroke="#8995a3" stroke-width="5" stroke-linecap="round"/><path d="M168.47,127.99 L159.61,128.87" stroke="#8995a3" stroke-width="5" stroke-linecap="round"/><path d="M219.74,95.89 L224.77,90.09" stroke="#8995a3" stroke-width="5" stroke-linecap="round"/><path d="M224.88,100.35 L229.91,94.54" stroke="#8995a3" stroke-width="5" stroke-linecap="round"/><path d="M159.61,128.87 L150.74,129.74" stroke="#8995a3" stroke-width="5" stroke-linecap="round"/><path d="M224.77,90.09 L229.80,84.28" stroke="#8995a3" stroke-width="5" stroke-linecap="round"/><path d="M229.91,94.54 L234.94,88.73" stroke="#8995a3" stroke-width="5" stroke-linecap="round"/><path d="M150.74,129.74 L141.87,130.61" stroke="#8995a3" stroke-width="5" stroke-linecap="round"/><path d="M229.80,84.28 L234.83,78.47" stroke="#8995a3" stroke-width="5" stroke-linecap="round"/><path d="M234.94,88.73 L239.97,82.92" stroke="#8995a3" stroke-width="5" stroke-linecap="round"/><path d="M141.87,130.61 L133.00,131.49" stroke="#8995a3" stroke-width="5" stroke-linecap="round"/><circle cx="246.62" cy="70.06" r="15.68" fill="url(#a8)" stroke="#c9434c" stroke-width="1"/><text x="246.62" y="70.46" text-anchor="middle" dominant-baseline="central" fill="white" font-family="Arial,sans-serif" font-size="20.38" font-weight="bold">O</text><circle cx="118.65" cy="132.90" r="15.68" fill="url(#a8)" stroke="#c9434c" stroke-width="1"/><text x="118.65" y="133.30" text-anchor="middle" dominant-baseline="central" fill="white" font-family="Arial,sans-serif" font-size="20.38" font-weight="bold">O</text></svg>
