<svg xmlns="http://www.w3.org/2000/svg" width="480" height="360" viewBox="0 0 480 360"><rect width="100%" height="100%" fill="white"/><defs><radialGradient id="a6" cx="32%" cy="25%" r="75%"><stop offset="0" stop-color="#fff"/><stop offset=".35" stop-color="#586575"/><stop offset="1" stop-color="#586575"/></radialGradient><radialGradient id="a7" cx="32%" cy="25%" r="75%"><stop offset="0" stop-color="#fff"/><stop offset=".35" stop-color="#2867bc"/><stop offset="1" stop-color="#2867bc"/></radialGradient><radialGradient id="a8" cx="32%" cy="25%" r="75%"><stop offset="0" stop-color="#fff"/><stop offset=".35" stop-color="#c9434c"/><stop offset="1" stop-color="#c9434c"/></radialGradient><radialGradient id="a16" cx="32%" cy="25%" r="75%"><stop offset="0" stop-color="#fff"/><stop offset=".35" stop-color="#b48a16"/><stop offset="1" stop-color="#b48a16"/></radialGradient><radialGradient id="a34" cx="32%" cy="25%" r="75%"><stop offset="0" stop-color="#fff"/><stop offset=".35" stop-color="#bf6923"/><stop offset="1" stop-color="#bf6923"/></radialGradient></defs><circle cx="305.72" cy="215.69" r="15.68" fill="url(#a34)" stroke="#bf6923" stroke-width="1"/><text x="305.72" y="216.09" text-anchor="middle" dominant-baseline="central" fill="white" font-family="Arial,sans-serif" font-size="20.38" font-weight="bold">Se</text><path d="M317.36,199.15 L314.02,203.89" stroke="#8995a3" stroke-width="5" stroke-linecap="round"/><path d="M320.70,194.41 L317.36,199.15" stroke="#8995a3" stroke-width="5" stroke-linecap="round"/><path d="M324.04,189.66 L320.70,194.41" stroke="#8995a3" stroke-width="5" stroke-linecap="round"/><path d="M327.39,184.92 L324.04,189.66" stroke="#8995a3" stroke-width="5" stroke-linecap="round"/><path d="M330.73,180.17 L327.39,184.92" stroke="#8995a3" stroke-width="5" stroke-linecap="round"/><path d="M334.07,175.43 L330.73,180.17" stroke="#8995a3" stroke-width="5" stroke-linecap="round"/><circle cx="341.48" cy="164.90" r="14.00" fill="url(#a6)" stroke="#586575" stroke-width="1"/><path d="M320.56,157.21 L329.39,160.46" stroke="#8995a3" stroke-width="5" stroke-linecap="round"/><path d="M311.73,153.97 L320.56,157.21" stroke="#8995a3" stroke-width="5" stroke-linecap="round"/><path d="M302.89,150.73 L311.73,153.97" stroke="#8995a3" stroke-width="5" stroke-linecap="round"/><path d="M294.06,147.48 L302.89,150.73" stroke="#8995a3" stroke-width="5" stroke-linecap="round"/><path d="M285.23,144.24 L294.06,147.48" stroke="#8995a3" stroke-width="5" stroke-linecap="round"/><path d="M276.40,140.99 L285.23,144.24" stroke="#8995a3" stroke-width="5" stroke-linecap="round"/><circle cx="264.30" cy="136.55" r="14.00" fill="url(#a6)" stroke="#586575" stroke-width="1"/><circle cx="138.52" cy="224.39" r="15.68" fill="url(#a8)" stroke="#c9434c" stroke-width="1"/><text x="138.52" y="224.79" text-anchor="middle" dominant-baseline="central" fill="white" font-family="Arial,sans-serif" font-size="20.38" font-weight="bold">O</text><path d="M257.14,147.26 L251.02,156.41" stroke="#8995a3" stroke-width="5" stroke-linecap="round"/><path d="M161.03,224.36 L152.95,225.60" stroke="#8995a3" stroke-width="5" stroke-linecap="round"/><path d="M159.99,217.64 L151.92,218.88" stroke="#8995a3" stroke-width="5" stroke-linecap="round"/><path d="M273.55,121.48 L271.04,125.58" stroke="#8995a3" stroke-width="5" stroke-linecap="round"/><path d="M251.02,156.41 L244.90,165.56" stroke="#8995a3" stroke-width="5" stroke-linecap="round"/><path d="M169.11,223.11 L161.03,224.36" stroke="#8995a3" stroke-width="5" stroke-linecap="round"/><path d="M168.07,216.39 L159.99,217.64" stroke="#8995a3" stroke-width="5" stroke-linecap="round"/><path d="M244.90,165.56 L238.77,174.71" stroke="#8995a3" stroke-width="5" stroke-linecap="round"/><path d="M177.18,221.86 L169.11,223.11" stroke="#8995a3" stroke-width="5" stroke-linecap="round"/><path d="M176.15,215.14 L168.07,216.39" stroke="#8995a3" stroke-width="5" stroke-linecap="round"/><path d="M238.77,174.71 L232.65,183.86" stroke="#8995a3" stroke-width="5" stroke-linecap="round"/><path d="M185.26,220.62 L177.18,221.86" stroke="#8995a3" stroke-width="5" stroke-linecap="round"/><path d="M184.22,213.90 L176.15,215.14" stroke="#8995a3" stroke-width="5" stroke-linecap="round"/><path d="M276.06,117.39 L273.55,121.48" stroke="#8995a3" stroke-width="5" stroke-linecap="round"/><path d="M232.65,183.86 L226.53,193.01" stroke="#8995a3" stroke-width="5" stroke-linecap="round"/><path d="M193.34,219.37 L185.26,220.62" stroke="#8995a3" stroke-width="5" stroke-linecap="round"/><path d="M192.30,212.65 L184.22,213.90" stroke="#8995a3" stroke-width="5" stroke-linecap="round"/><path d="M226.53,193.01 L220.40,202.15" stroke="#8995a3" stroke-width="5" stroke-linecap="round"/><path d="M201.41,218.12 L193.34,219.37" stroke="#8995a3" stroke-width="5" stroke-linecap="round"/><path d="M200.37,211.40 L192.30,212.65" stroke="#8995a3" stroke-width="5" stroke-linecap="round"/><circle cx="213.24" cy="212.86" r="14.00" fill="url(#a6)" stroke="#586575" stroke-width="1"/><path d="M278.57,113.30 L276.06,117.39" stroke="#8995a3" stroke-width="5" stroke-linecap="round"/><path d="M219.92,223.87 L223.47,229.72" stroke="#8995a3" stroke-width="5" stroke-linecap="round"/><path d="M223.47,229.72 L227.01,235.56" stroke="#8995a3" stroke-width="5" stroke-linecap="round"/><path d="M281.08,109.21 L278.57,113.30" stroke="#8995a3" stroke-width="5" stroke-linecap="round"/><path d="M227.01,235.56 L230.55,241.40" stroke="#8995a3" stroke-width="5" stroke-linecap="round"/><path d="M283.59,105.12 L281.08,109.21" stroke="#8995a3" stroke-width="5" stroke-linecap="round"/><path d="M230.55,241.40 L234.10,247.25" stroke="#8995a3" stroke-width="5" stroke-linecap="round"/><path d="M286.10,101.03 L283.59,105.12" stroke="#8995a3" stroke-width="5" stroke-linecap="round"/><path d="M234.10,247.25 L237.64,253.09" stroke="#8995a3" stroke-width="5" stroke-linecap="round"/><circle cx="293.64" cy="88.73" r="15.68" fill="url(#a7)" stroke="#2867bc" stroke-width="1"/><text x="293.64" y="89.13" text-anchor="middle" dominant-baseline="central" fill="white" font-family="Arial,sans-serif" font-size="20.38" font-weight="bold">N</text><path d="M237.64,253.09 L241.19,258.93" stroke="#8995a3" stroke-width="5" stroke-linecap="round"/><circle cx="248.67" cy="271.27" r="15.68" fill="url(#a8)" stroke="#c9434c" stroke-width="1"/><text x="248.67" y="271.67" text-anchor="middle" dominant-baseline="central" fill="white" font-family="Arial,sans-serif" font-size="20.38" font-weight="bold">O</text></svg>
