<svg xmlns="http://www.w3.org/2000/svg" width="480" height="360" viewBox="0 0 480 360"><rect width="100%" height="100%" fill="white"/><defs><radialGradient id="a6" cx="32%" cy="25%" r="75%"><stop offset="0" stop-color="#fff"/><stop offset=".35" stop-color="#586575"/><stop offset="1" stop-color="#586575"/></radialGradient><radialGradient id="a7" cx="32%" cy="25%" r="75%"><stop offset="0" stop-color="#fff"/><stop offset=".35" stop-color="#2867bc"/><stop offset="1" stop-color="#2867bc"/></radialGradient><radialGradient id="a8" cx="32%" cy="25%" r="75%"><stop offset="0" stop-color="#fff"/><stop offset=".35" stop-color="#c9434c"/><stop offset="1" stop-color="#c9434c"/></radialGradient><radialGradient id="a16" cx="32%" cy="25%" r="75%"><stop offset="0" stop-color="#fff"/><stop offset=".35" stop-color="#b48a16"/><stop offset="1" stop-color="#b48a16"/></radialGradient><radialGradient id="a34" cx="32%" cy="25%" r="75%"><stop offset="0" stop-color="#fff"/><stop offset=".35" stop-color="#bf6923"/><stop offset="1" stop-color="#bf6923"/></radialGradient></defs><circle cx="203.42" cy="278.21" r="15.68" fill="url(#a8)" stroke="#c9434c" stroke-width="1"/><text x="203.42" y="278.61" text-anchor="middle" dominant-baseline="central" fill="white" font-family="Arial,sans-serif" font-size="20.38" font-weight="bold">O</text><path d="M224.52,275.46 L217.89,277.44" stroke="#8995a3" stroke-width="5" stroke-linecap="round"/><path d="M222.57,268.94 L215.94,270.92" stroke="#8995a3" stroke-width="5" stroke-linecap="round"/><path d="M231.15,273.47 L224.52,275.46" stroke="#8995a3" stroke-width="5" stroke-linecap="round"/><path d="M229.20,266.96 L222.57,268.94" stroke="#8995a3" stroke-width="5" stroke-linecap="round"/><circle cx="345.55" cy="287.46" r="15.68" fill="url(#a8)" stroke="#c9434c" stroke-width="1"/><text x="345.55" y="287.86" text-anchor="middle" dominant-baseline="central" fill="white" font-family="Arial,sans-serif" font-size="20.38" font-weight="bold">O</text><path d="M323.49,279.21 L332.04,282.41" stroke="#8995a3" stroke-width="5" stroke-linecap="round"/><path d="M237.78,271.49 L231.15,273.47" stroke="#8995a3" stroke-width="5" stroke-linecap="round"/><path d="M235.83,264.98 L229.20,266.96" stroke="#8995a3" stroke-width="5" stroke-linecap="round"/><path d="M314.94,276.02 L323.49,279.21" stroke="#8995a3" stroke-width="5" stroke-linecap="round"/><path d="M306.39,272.82 L314.94,276.02" stroke="#8995a3" stroke-width="5" stroke-linecap="round"/><path d="M244.41,269.51 L237.78,271.49" stroke="#8995a3" stroke-width="5" stroke-linecap="round"/><path d="M242.47,263.00 L235.83,264.98" stroke="#8995a3" stroke-width="5" stroke-linecap="round"/><path d="M297.84,269.62 L306.39,272.82" stroke="#8995a3" stroke-width="5" stroke-linecap="round"/><path d="M251.04,267.53 L244.41,269.51" stroke="#8995a3" stroke-width="5" stroke-linecap="round"/><path d="M249.10,261.02 L242.47,263.00" stroke="#8995a3" stroke-width="5" stroke-linecap="round"/><path d="M289.29,266.42 L297.84,269.62" stroke="#8995a3" stroke-width="5" stroke-linecap="round"/><path d="M257.67,265.55 L251.04,267.53" stroke="#8995a3" stroke-width="5" stroke-linecap="round"/><path d="M255.73,259.03 L249.10,261.02" stroke="#8995a3" stroke-width="5" stroke-linecap="round"/><path d="M280.74,263.23 L289.29,266.42" stroke="#8995a3" stroke-width="5" stroke-linecap="round"/><circle cx="268.67" cy="258.72" r="14.00" fill="url(#a6)" stroke="#586575" stroke-width="1"/><path d="M270.40,241.14 L269.93,245.90" stroke="#8995a3" stroke-width="5" stroke-linecap="round"/><circle cx="203.12" cy="72.54" r="14.00" fill="url(#a6)" stroke="#586575" stroke-width="1"/><path d="M202.88,85.41 L202.76,91.81" stroke="#8995a3" stroke-width="5" stroke-linecap="round"/><path d="M270.87,236.39 L270.40,241.14" stroke="#8995a3" stroke-width="5" stroke-linecap="round"/><path d="M202.76,91.81 L202.65,98.20" stroke="#8995a3" stroke-width="5" stroke-linecap="round"/><path d="M271.33,231.63 L270.87,236.39" stroke="#8995a3" stroke-width="5" stroke-linecap="round"/><path d="M202.65,98.20 L202.53,104.60" stroke="#8995a3" stroke-width="5" stroke-linecap="round"/><path d="M271.80,226.88 L271.33,231.63" stroke="#8995a3" stroke-width="5" stroke-linecap="round"/><path d="M202.53,104.60 L202.41,110.99" stroke="#8995a3" stroke-width="5" stroke-linecap="round"/><path d="M272.27,222.12 L271.80,226.88" stroke="#8995a3" stroke-width="5" stroke-linecap="round"/><path d="M202.41,110.99 L202.29,117.39" stroke="#8995a3" stroke-width="5" stroke-linecap="round"/><path d="M272.74,217.37 L272.27,222.12" stroke="#8995a3" stroke-width="5" stroke-linecap="round"/><path d="M202.29,117.39 L202.17,123.78" stroke="#8995a3" stroke-width="5" stroke-linecap="round"/><path d="M255.74,187.35 L264.62,195.72" stroke="#8995a3" stroke-width="5" stroke-linecap="round"/><path d="M246.85,178.98 L255.74,187.35" stroke="#8995a3" stroke-width="5" stroke-linecap="round"/><circle cx="274.00" cy="204.55" r="14.00" fill="url(#a6)" stroke="#586575" stroke-width="1"/><path d="M285.78,199.35 L296.05,194.82" stroke="#8995a3" stroke-width="5" stroke-linecap="round"/><path d="M237.97,170.61 L246.85,178.98" stroke="#8995a3" stroke-width="5" stroke-linecap="round"/><path d="M229.08,162.23 L237.97,170.61" stroke="#8995a3" stroke-width="5" stroke-linecap="round"/><path d="M220.20,153.86 L229.08,162.23" stroke="#8995a3" stroke-width="5" stroke-linecap="round"/><path d="M211.31,145.49 L220.20,153.86" stroke="#8995a3" stroke-width="5" stroke-linecap="round"/><path d="M296.05,194.82 L306.31,190.29" stroke="#8995a3" stroke-width="5" stroke-linecap="round"/><path d="M190.34,142.26 L180.68,146.92" stroke="#8995a3" stroke-width="5" stroke-linecap="round"/><circle cx="201.94" cy="136.66" r="14.00" fill="url(#a6)" stroke="#586575" stroke-width="1"/><path d="M180.68,146.92 L171.03,151.57" stroke="#8995a3" stroke-width="5" stroke-linecap="round"/><path d="M171.03,151.57 L161.38,156.23" stroke="#8995a3" stroke-width="5" stroke-linecap="round"/><path d="M306.31,190.29 L316.58,185.76" stroke="#8995a3" stroke-width="5" stroke-linecap="round"/><path d="M161.38,156.23 L151.72,160.89" stroke="#8995a3" stroke-width="5" stroke-linecap="round"/><path d="M151.72,160.89 L142.07,165.55" stroke="#8995a3" stroke-width="5" stroke-linecap="round"/><path d="M142.07,165.55 L132.42,170.21" stroke="#8995a3" stroke-width="5" stroke-linecap="round"/><path d="M316.58,185.76 L326.85,181.23" stroke="#8995a3" stroke-width="5" stroke-linecap="round"/><circle cx="119.42" cy="176.48" r="15.68" fill="url(#a8)" stroke="#c9434c" stroke-width="1"/><text x="119.42" y="176.88" text-anchor="middle" dominant-baseline="central" fill="white" font-family="Arial,sans-serif" font-size="20.38" font-weight="bold">O</text><path d="M326.85,181.23 L337.11,176.70" stroke="#8995a3" stroke-width="5" stroke-linecap="round"/><path d="M337.11,176.70 L347.38,172.18" stroke="#8995a3" stroke-width="5" stroke-linecap="round"/><circle cx="360.58" cy="166.35" r="15.68" fill="url(#a7)" stroke="#2867bc" stroke-width="1"/><text x="360.58" y="166.75" text-anchor="middle" dominant-baseline="central" fill="white" font-family="Arial,sans-serif" font-size="20.38" font-weight="bold">N</text></svg>
