<svg xmlns="http://www.w3.org/2000/svg" width="480" height="360" viewBox="0 0 480 360"><rect width="100%" height="100%" fill="white"/><defs><radialGradient id="a6" cx="32%" cy="25%" r="75%"><stop offset="0" stop-color="#fff"/><stop offset=".35" stop-color="#586575"/><stop offset="1" stop-color="#586575"/></radialGradient><radialGradient id="a7" cx="32%" cy="25%" r="75%"><stop offset="0" stop-color="#fff"/><stop offset=".35" stop-color="#2867bc"/><stop offset="1" stop-color="#2867bc"/></radialGradient><radialGradient id="a8" cx="32%" cy="25%" r="75%"><stop offset="0" stop-color="#fff"/><stop offset=".35" stop-color="#c9434c"/><stop offset="1" stop-color="#c9434c"/></radialGradient><radialGradient id="a16" cx="32%" cy="25%" r="75%"><stop offset="0" stop-color="#fff"/><stop offset=".35" stop-color="#b48a16"/><stop offset="1" stop-color="#b48a16"/></radialGradient><radialGradient id="a34" cx="32%" cy="25%" r="75%"><stop offset="0" stop-color="#fff"/><stop offset=".35" stop-color="#bf6923"/><stop offset="1" stop-color="#bf6923"/></radialGradient></defs><circle cx="369.01" cy="160.90" r="13.84" fill="url(#a8)" stroke="#c9434c" stroke-width="1"/><text x="369.01" y="161.30" text-anchor="middle" dominant-baseline="central" fill="white" font-family="Arial,sans-serif" font-size="18.00" font-weight="bold">O</text><path d="M365.42,142.57 L367.63,148.17" stroke="#8995a3" stroke-width="5" stroke-linecap="round"/><path d="M359.09,145.07 L361.31,150.67" stroke="#8995a3" stroke-width="5" stroke-linecap="round"/><path d="M363.20,136.96 L365.42,142.57" stroke="#8995a3" stroke-width="5" stroke-linecap="round"/><path d="M356.88,139.46 L359.09,145.07" stroke="#8995a3" stroke-width="5" stroke-linecap="round"/><circle cx="371.90" cy="40.00" r="13.84" fill="url(#a7)" stroke="#2867bc" stroke-width="1"/><text x="371.90" y="40.40" text-anchor="middle" dominant-baseline="central" fill="white" font-family="Arial,sans-serif" font-size="18.00" font-weight="bold">N</text><path d="M364.70,59.10 L367.41,51.92" stroke="#8995a3" stroke-width="5" stroke-linecap="round"/><path d="M360.99,131.36 L363.20,136.96" stroke="#8995a3" stroke-width="5" stroke-linecap="round"/><path d="M354.67,133.86 L356.88,139.46" stroke="#8995a3" stroke-width="5" stroke-linecap="round"/><path d="M362.00,66.27 L364.70,59.10" stroke="#8995a3" stroke-width="5" stroke-linecap="round"/><path d="M359.29,73.45 L362.00,66.27" stroke="#8995a3" stroke-width="5" stroke-linecap="round"/><path d="M358.78,125.75 L360.99,131.36" stroke="#8995a3" stroke-width="5" stroke-linecap="round"/><path d="M352.45,128.25 L354.67,133.86" stroke="#8995a3" stroke-width="5" stroke-linecap="round"/><path d="M356.59,80.63 L359.29,73.45" stroke="#8995a3" stroke-width="5" stroke-linecap="round"/><path d="M356.56,120.15 L358.78,125.75" stroke="#8995a3" stroke-width="5" stroke-linecap="round"/><path d="M350.24,122.65 L352.45,128.25" stroke="#8995a3" stroke-width="5" stroke-linecap="round"/><path d="M353.89,87.81 L356.59,80.63" stroke="#8995a3" stroke-width="5" stroke-linecap="round"/><circle cx="108.10" cy="280.11" r="13.84" fill="url(#a8)" stroke="#c9434c" stroke-width="1"/><text x="108.10" y="280.51" text-anchor="middle" dominant-baseline="central" fill="white" font-family="Arial,sans-serif" font-size="18.00" font-weight="bold">O</text><path d="M354.35,114.54 L356.56,120.15" stroke="#8995a3" stroke-width="5" stroke-linecap="round"/><path d="M348.03,117.04 L350.24,122.65" stroke="#8995a3" stroke-width="5" stroke-linecap="round"/><path d="M351.18,94.98 L353.89,87.81" stroke="#8995a3" stroke-width="5" stroke-linecap="round"/><path d="M127.54,277.47 L120.72,278.40" stroke="#8995a3" stroke-width="5" stroke-linecap="round"/><circle cx="347.17" cy="105.62" r="12.36" fill="url(#a6)" stroke="#586575" stroke-width="1"/><circle cx="150.02" cy="142.77" r="13.84" fill="url(#a7)" stroke="#2867bc" stroke-width="1"/><text x="150.02" y="143.17" text-anchor="middle" dominant-baseline="central" fill="white" font-family="Arial,sans-serif" font-size="18.00" font-weight="bold">N</text><path d="M159.18,151.62 L165.76,157.97" stroke="#8995a3" stroke-width="5" stroke-linecap="round"/><path d="M165.76,157.97 L172.34,164.33" stroke="#8995a3" stroke-width="5" stroke-linecap="round"/><path d="M134.37,276.55 L127.54,277.47" stroke="#8995a3" stroke-width="5" stroke-linecap="round"/><path d="M330.81,104.79 L335.81,105.04" stroke="#8995a3" stroke-width="5" stroke-linecap="round"/><path d="M172.34,164.33 L178.92,170.68" stroke="#8995a3" stroke-width="5" stroke-linecap="round"/><path d="M178.92,170.68 L185.50,177.04" stroke="#8995a3" stroke-width="5" stroke-linecap="round"/><path d="M185.50,177.04 L192.08,183.40" stroke="#8995a3" stroke-width="5" stroke-linecap="round"/><path d="M141.19,275.62 L134.37,276.55" stroke="#8995a3" stroke-width="5" stroke-linecap="round"/><path d="M192.08,183.40 L198.66,189.75" stroke="#8995a3" stroke-width="5" stroke-linecap="round"/><circle cx="206.84" cy="197.65" r="12.36" fill="url(#a6)" stroke="#586575" stroke-width="1"/><path d="M202.08,207.98 L198.01,216.81" stroke="#8995a3" stroke-width="5" stroke-linecap="round"/><path d="M148.01,274.70 L141.19,275.62" stroke="#8995a3" stroke-width="5" stroke-linecap="round"/><path d="M325.81,104.53 L330.81,104.79" stroke="#8995a3" stroke-width="5" stroke-linecap="round"/><path d="M198.01,216.81 L193.95,225.65" stroke="#8995a3" stroke-width="5" stroke-linecap="round"/><path d="M217.16,192.88 L221.99,190.65" stroke="#8995a3" stroke-width="5" stroke-linecap="round"/><path d="M193.95,225.65 L189.88,234.48" stroke="#8995a3" stroke-width="5" stroke-linecap="round"/><path d="M154.83,273.77 L148.01,274.70" stroke="#8995a3" stroke-width="5" stroke-linecap="round"/><path d="M189.88,234.48 L185.81,243.32" stroke="#8995a3" stroke-width="5" stroke-linecap="round"/><path d="M185.81,243.32 L181.74,252.15" stroke="#8995a3" stroke-width="5" stroke-linecap="round"/><path d="M320.80,104.27 L325.81,104.53" stroke="#8995a3" stroke-width="5" stroke-linecap="round"/><path d="M161.65,272.85 L154.83,273.77" stroke="#8995a3" stroke-width="5" stroke-linecap="round"/><path d="M181.74,252.15 L177.68,260.99" stroke="#8995a3" stroke-width="5" stroke-linecap="round"/><path d="M221.99,190.65 L226.82,188.42" stroke="#8995a3" stroke-width="5" stroke-linecap="round"/><circle cx="172.92" cy="271.32" r="12.36" fill="url(#a6)" stroke="#586575" stroke-width="1"/><path d="M181.01,279.42 L183.46,284.10" stroke="#8995a3" stroke-width="5" stroke-linecap="round"/><path d="M174.99,282.58 L177.44,287.26" stroke="#8995a3" stroke-width="5" stroke-linecap="round"/><path d="M315.80,104.02 L320.80,104.27" stroke="#8995a3" stroke-width="5" stroke-linecap="round"/><path d="M183.46,284.10 L185.91,288.78" stroke="#8995a3" stroke-width="5" stroke-linecap="round"/><path d="M177.44,287.26 L179.89,291.93" stroke="#8995a3" stroke-width="5" stroke-linecap="round"/><path d="M226.82,188.42 L231.65,186.19" stroke="#8995a3" stroke-width="5" stroke-linecap="round"/><path d="M185.91,288.78 L188.36,293.45" stroke="#8995a3" stroke-width="5" stroke-linecap="round"/><path d="M179.89,291.93 L182.34,296.61" stroke="#8995a3" stroke-width="5" stroke-linecap="round"/><path d="M310.80,103.76 L315.80,104.02" stroke="#8995a3" stroke-width="5" stroke-linecap="round"/><path d="M231.65,186.19 L236.48,183.96" stroke="#8995a3" stroke-width="5" stroke-linecap="round"/><path d="M188.36,293.45 L190.82,298.13" stroke="#8995a3" stroke-width="5" stroke-linecap="round"/><path d="M182.34,296.61 L184.79,301.29" stroke="#8995a3" stroke-width="5" stroke-linecap="round"/><path d="M190.82,298.13 L193.27,302.81" stroke="#8995a3" stroke-width="5" stroke-linecap="round"/><path d="M184.79,301.29 L187.25,305.97" stroke="#8995a3" stroke-width="5" stroke-linecap="round"/><path d="M305.79,103.50 L310.80,103.76" stroke="#8995a3" stroke-width="5" stroke-linecap="round"/><path d="M236.48,183.96 L241.31,181.73" stroke="#8995a3" stroke-width="5" stroke-linecap="round"/><path d="M193.27,302.81 L195.72,307.49" stroke="#8995a3" stroke-width="5" stroke-linecap="round"/><path d="M187.25,305.97 L189.70,310.64" stroke="#8995a3" stroke-width="5" stroke-linecap="round"/><circle cx="294.44" cy="102.92" r="12.36" fill="url(#a6)" stroke="#586575" stroke-width="1"/><path d="M284.56,121.59 L289.12,112.97" stroke="#8995a3" stroke-width="5" stroke-linecap="round"/><circle cx="198.44" cy="320.00" r="13.84" fill="url(#a8)" stroke="#c9434c" stroke-width="1"/><text x="198.44" y="320.40" text-anchor="middle" dominant-baseline="central" fill="white" font-family="Arial,sans-serif" font-size="18.00" font-weight="bold">O</text><path d="M280.01,130.21 L284.56,121.59" stroke="#8995a3" stroke-width="5" stroke-linecap="round"/><path d="M275.45,138.82 L280.01,130.21" stroke="#8995a3" stroke-width="5" stroke-linecap="round"/><path d="M270.89,147.44 L275.45,138.82" stroke="#8995a3" stroke-width="5" stroke-linecap="round"/><path d="M241.31,181.73 L246.14,179.49" stroke="#8995a3" stroke-width="5" stroke-linecap="round"/><path d="M266.33,156.06 L270.89,147.44" stroke="#8995a3" stroke-width="5" stroke-linecap="round"/><path d="M261.78,164.67 L266.33,156.06" stroke="#8995a3" stroke-width="5" stroke-linecap="round"/><circle cx="256.46" cy="174.73" r="12.36" fill="url(#a6)" stroke="#586575" stroke-width="1"/></svg>
