<svg xmlns="http://www.w3.org/2000/svg" width="480" height="360" viewBox="0 0 480 360"><rect width="100%" height="100%" fill="white"/><defs><radialGradient id="a6" cx="32%" cy="25%" r="75%"><stop offset="0" stop-color="#fff"/><stop offset=".35" stop-color="#586575"/><stop offset="1" stop-color="#586575"/></radialGradient><radialGradient id="a7" cx="32%" cy="25%" r="75%"><stop offset="0" stop-color="#fff"/><stop offset=".35" stop-color="#2867bc"/><stop offset="1" stop-color="#2867bc"/></radialGradient><radialGradient id="a8" cx="32%" cy="25%" r="75%"><stop offset="0" stop-color="#fff"/><stop offset=".35" stop-color="#c9434c"/><stop offset="1" stop-color="#c9434c"/></radialGradient><radialGradient id="a16" cx="32%" cy="25%" r="75%"><stop offset="0" stop-color="#fff"/><stop offset=".35" stop-color="#b48a16"/><stop offset="1" stop-color="#b48a16"/></radialGradient><radialGradient id="a34" cx="32%" cy="25%" r="75%"><stop offset="0" stop-color="#fff"/><stop offset=".35" stop-color="#bf6923"/><stop offset="1" stop-color="#bf6923"/></radialGradient></defs><circle cx="253.47" cy="267.78" r="14.00" fill="url(#a6)" stroke="#586575" stroke-width="1"/><path d="M253.60,243.20 L253.54,254.91" stroke="#8995a3" stroke-width="5" stroke-linecap="round"/><path d="M265.37,272.72 L275.08,276.75" stroke="#8995a3" stroke-width="5" stroke-linecap="round"/><path d="M253.67,231.49 L253.60,243.20" stroke="#8995a3" stroke-width="5" stroke-linecap="round"/><path d="M253.73,219.78 L253.67,231.49" stroke="#8995a3" stroke-width="5" stroke-linecap="round"/><path d="M275.08,276.75 L284.79,280.78" stroke="#8995a3" stroke-width="5" stroke-linecap="round"/><path d="M253.80,208.07 L253.73,219.78" stroke="#8995a3" stroke-width="5" stroke-linecap="round"/><path d="M253.86,196.36 L253.80,208.07" stroke="#8995a3" stroke-width="5" stroke-linecap="round"/><path d="M253.92,184.65 L253.86,196.36" stroke="#8995a3" stroke-width="5" stroke-linecap="round"/><path d="M284.79,280.78 L294.50,284.81" stroke="#8995a3" stroke-width="5" stroke-linecap="round"/><circle cx="253.99" cy="171.77" r="14.00" fill="url(#a6)" stroke="#586575" stroke-width="1"/><path d="M231.43,162.40 L242.10,166.83" stroke="#8995a3" stroke-width="5" stroke-linecap="round"/><circle cx="96.68" cy="166.23" r="15.68" fill="url(#a8)" stroke="#c9434c" stroke-width="1"/><text x="96.68" y="166.63" text-anchor="middle" dominant-baseline="central" fill="white" font-family="Arial,sans-serif" font-size="20.38" font-weight="bold">O</text><path d="M220.77,157.97 L231.43,162.40" stroke="#8995a3" stroke-width="5" stroke-linecap="round"/><path d="M108.17,157.40 L115.71,154.05" stroke="#8995a3" stroke-width="5" stroke-linecap="round"/><path d="M110.93,163.61 L118.47,160.26" stroke="#8995a3" stroke-width="5" stroke-linecap="round"/><path d="M272.30,169.15 L266.74,169.95" stroke="#8995a3" stroke-width="5" stroke-linecap="round"/><path d="M294.50,284.81 L304.21,288.83" stroke="#8995a3" stroke-width="5" stroke-linecap="round"/><path d="M115.71,154.05 L123.25,150.70" stroke="#8995a3" stroke-width="5" stroke-linecap="round"/><path d="M118.47,160.26 L126.01,156.91" stroke="#8995a3" stroke-width="5" stroke-linecap="round"/><path d="M210.10,153.54 L220.77,157.97" stroke="#8995a3" stroke-width="5" stroke-linecap="round"/><path d="M123.25,150.70 L130.79,147.34" stroke="#8995a3" stroke-width="5" stroke-linecap="round"/><path d="M126.01,156.91 L133.55,153.56" stroke="#8995a3" stroke-width="5" stroke-linecap="round"/><path d="M199.43,149.11 L210.10,153.54" stroke="#8995a3" stroke-width="5" stroke-linecap="round"/><path d="M304.21,288.83 L313.92,292.86" stroke="#8995a3" stroke-width="5" stroke-linecap="round"/><path d="M130.79,147.34 L138.33,143.99" stroke="#8995a3" stroke-width="5" stroke-linecap="round"/><path d="M133.55,153.56 L141.09,150.20" stroke="#8995a3" stroke-width="5" stroke-linecap="round"/><path d="M188.77,144.68 L199.43,149.11" stroke="#8995a3" stroke-width="5" stroke-linecap="round"/><path d="M138.33,143.99 L145.87,140.64" stroke="#8995a3" stroke-width="5" stroke-linecap="round"/><path d="M141.09,150.20 L148.63,146.85" stroke="#8995a3" stroke-width="5" stroke-linecap="round"/><path d="M277.86,168.36 L272.30,169.15" stroke="#8995a3" stroke-width="5" stroke-linecap="round"/><path d="M313.92,292.86 L323.63,296.89" stroke="#8995a3" stroke-width="5" stroke-linecap="round"/><path d="M178.10,140.25 L188.77,144.68" stroke="#8995a3" stroke-width="5" stroke-linecap="round"/><path d="M145.87,140.64 L153.41,137.28" stroke="#8995a3" stroke-width="5" stroke-linecap="round"/><path d="M148.63,146.85 L156.17,143.50" stroke="#8995a3" stroke-width="5" stroke-linecap="round"/><circle cx="166.20" cy="135.31" r="14.00" fill="url(#a6)" stroke="#586575" stroke-width="1"/><circle cx="335.52" cy="301.83" r="14.00" fill="url(#a6)" stroke="#586575" stroke-width="1"/><path d="M166.88,122.45 L167.32,114.14" stroke="#8995a3" stroke-width="5" stroke-linecap="round"/><path d="M342.19,290.81 L347.94,281.32" stroke="#8995a3" stroke-width="5" stroke-linecap="round"/><path d="M283.42,167.56 L277.86,168.36" stroke="#8995a3" stroke-width="5" stroke-linecap="round"/><path d="M347.94,281.32 L353.68,271.83" stroke="#8995a3" stroke-width="5" stroke-linecap="round"/><path d="M167.32,114.14 L167.76,105.83" stroke="#8995a3" stroke-width="5" stroke-linecap="round"/><path d="M353.68,271.83 L359.42,262.34" stroke="#8995a3" stroke-width="5" stroke-linecap="round"/><path d="M167.76,105.83 L168.20,97.52" stroke="#8995a3" stroke-width="5" stroke-linecap="round"/><path d="M359.42,262.34 L365.16,252.86" stroke="#8995a3" stroke-width="5" stroke-linecap="round"/><path d="M288.97,166.77 L283.42,167.56" stroke="#8995a3" stroke-width="5" stroke-linecap="round"/><path d="M168.20,97.52 L168.64,89.20" stroke="#8995a3" stroke-width="5" stroke-linecap="round"/><path d="M365.16,252.86 L370.90,243.37" stroke="#8995a3" stroke-width="5" stroke-linecap="round"/><path d="M370.90,243.37 L376.65,233.88" stroke="#8995a3" stroke-width="5" stroke-linecap="round"/><path d="M168.64,89.20 L169.08,80.89" stroke="#8995a3" stroke-width="5" stroke-linecap="round"/><circle cx="383.32" cy="222.86" r="14.00" fill="url(#a6)" stroke="#586575" stroke-width="1"/><path d="M294.53,165.97 L288.97,166.77" stroke="#8995a3" stroke-width="5" stroke-linecap="round"/><path d="M373.58,214.43 L365.53,207.45" stroke="#8995a3" stroke-width="5" stroke-linecap="round"/><path d="M169.08,80.89 L169.52,72.58" stroke="#8995a3" stroke-width="5" stroke-linecap="round"/><path d="M365.53,207.45 L357.48,200.48" stroke="#8995a3" stroke-width="5" stroke-linecap="round"/><path d="M357.48,200.48 L349.43,193.50" stroke="#8995a3" stroke-width="5" stroke-linecap="round"/><circle cx="170.28" cy="58.17" r="15.68" fill="url(#a8)" stroke="#c9434c" stroke-width="1"/><text x="170.28" y="58.57" text-anchor="middle" dominant-baseline="central" fill="white" font-family="Arial,sans-serif" font-size="20.38" font-weight="bold">O</text><path d="M349.43,193.50 L341.37,186.53" stroke="#8995a3" stroke-width="5" stroke-linecap="round"/><path d="M300.09,165.17 L294.53,165.97" stroke="#8995a3" stroke-width="5" stroke-linecap="round"/><path d="M341.37,186.53 L333.32,179.55" stroke="#8995a3" stroke-width="5" stroke-linecap="round"/><path d="M333.32,179.55 L325.27,172.58" stroke="#8995a3" stroke-width="5" stroke-linecap="round"/><circle cx="314.37" cy="163.13" r="15.68" fill="url(#a7)" stroke="#2867bc" stroke-width="1"/><text x="314.37" y="163.53" text-anchor="middle" dominant-baseline="central" fill="white" font-family="Arial,sans-serif" font-size="20.38" font-weight="bold">N</text></svg>
