<svg xmlns="http://www.w3.org/2000/svg" width="480" height="360" viewBox="0 0 480 360"><rect width="100%" height="100%" fill="white"/><defs><radialGradient id="a6" cx="32%" cy="25%" r="75%"><stop offset="0" stop-color="#fff"/><stop offset=".35" stop-color="#586575"/><stop offset="1" stop-color="#586575"/></radialGradient><radialGradient id="a7" cx="32%" cy="25%" r="75%"><stop offset="0" stop-color="#fff"/><stop offset=".35" stop-color="#2867bc"/><stop offset="1" stop-color="#2867bc"/></radialGradient><radialGradient id="a8" cx="32%" cy="25%" r="75%"><stop offset="0" stop-color="#fff"/><stop offset=".35" stop-color="#c9434c"/><stop offset="1" stop-color="#c9434c"/></radialGradient><radialGradient id="a16" cx="32%" cy="25%" r="75%"><stop offset="0" stop-color="#fff"/><stop offset=".35" stop-color="#b48a16"/><stop offset="1" stop-color="#b48a16"/></radialGradient><radialGradient id="a34" cx="32%" cy="25%" r="75%"><stop offset="0" stop-color="#fff"/><stop offset=".35" stop-color="#bf6923"/><stop offset="1" stop-color="#bf6923"/></radialGradient></defs><circle cx="322.52" cy="101.87" r="15.68" fill="url(#a7)" stroke="#2867bc" stroke-width="1"/><text x="322.52" y="102.27" text-anchor="middle" dominant-baseline="central" fill="white" font-family="Arial,sans-serif" font-size="20.38" font-weight="bold">N</text><path d="M309.06,107.04 L302.35,109.61" stroke="#8995a3" stroke-width="5" stroke-linecap="round"/><path d="M302.35,109.61 L295.64,112.18" stroke="#8995a3" stroke-width="5" stroke-linecap="round"/><circle cx="174.76" cy="157.28" r="14.00" fill="url(#a6)" stroke="#586575" stroke-width="1"/><path d="M196.49,149.28 L186.85,152.83" stroke="#8995a3" stroke-width="5" stroke-linecap="round"/><path d="M161.94,158.48 L154.91,159.14" stroke="#8995a3" stroke-width="5" stroke-linecap="round"/><path d="M295.64,112.18 L288.94,114.76" stroke="#8995a3" stroke-width="5" stroke-linecap="round"/><path d="M206.14,145.73 L196.49,149.28" stroke="#8995a3" stroke-width="5" stroke-linecap="round"/><path d="M154.91,159.14 L147.88,159.80" stroke="#8995a3" stroke-width="5" stroke-linecap="round"/><path d="M288.94,114.76 L282.23,117.33" stroke="#8995a3" stroke-width="5" stroke-linecap="round"/><path d="M215.78,142.19 L206.14,145.73" stroke="#8995a3" stroke-width="5" stroke-linecap="round"/><path d="M147.88,159.80 L140.85,160.46" stroke="#8995a3" stroke-width="5" stroke-linecap="round"/><path d="M225.42,138.64 L215.78,142.19" stroke="#8995a3" stroke-width="5" stroke-linecap="round"/><path d="M282.23,117.33 L275.53,119.90" stroke="#8995a3" stroke-width="5" stroke-linecap="round"/><path d="M235.07,135.09 L225.42,138.64" stroke="#8995a3" stroke-width="5" stroke-linecap="round"/><path d="M140.85,160.46 L133.82,161.12" stroke="#8995a3" stroke-width="5" stroke-linecap="round"/><path d="M275.53,119.90 L268.82,122.48" stroke="#8995a3" stroke-width="5" stroke-linecap="round"/><path d="M244.71,131.54 L235.07,135.09" stroke="#8995a3" stroke-width="5" stroke-linecap="round"/><path d="M133.82,161.12 L126.79,161.78" stroke="#8995a3" stroke-width="5" stroke-linecap="round"/><circle cx="256.80" cy="127.09" r="14.00" fill="url(#a6)" stroke="#586575" stroke-width="1"/><path d="M262.34,138.72 L266.19,146.79" stroke="#8995a3" stroke-width="5" stroke-linecap="round"/><path d="M126.79,161.78 L119.76,162.44" stroke="#8995a3" stroke-width="5" stroke-linecap="round"/><path d="M266.19,146.79 L270.04,154.86" stroke="#8995a3" stroke-width="5" stroke-linecap="round"/><circle cx="105.40" cy="163.79" r="15.68" fill="url(#a8)" stroke="#c9434c" stroke-width="1"/><text x="105.40" y="164.19" text-anchor="middle" dominant-baseline="central" fill="white" font-family="Arial,sans-serif" font-size="20.38" font-weight="bold">O</text><path d="M270.04,154.86 L273.89,162.92" stroke="#8995a3" stroke-width="5" stroke-linecap="round"/><path d="M273.89,162.92 L277.74,170.99" stroke="#8995a3" stroke-width="5" stroke-linecap="round"/><path d="M277.74,170.99 L281.59,179.06" stroke="#8995a3" stroke-width="5" stroke-linecap="round"/><path d="M281.59,179.06 L285.44,187.13" stroke="#8995a3" stroke-width="5" stroke-linecap="round"/><circle cx="290.99" cy="198.75" r="14.00" fill="url(#a6)" stroke="#586575" stroke-width="1"/><path d="M303.78,197.25 L313.19,196.14" stroke="#8995a3" stroke-width="5" stroke-linecap="round"/><path d="M286.66,210.96 L282.32,217.22" stroke="#8995a3" stroke-width="5" stroke-linecap="round"/><path d="M281.07,207.08 L276.73,213.34" stroke="#8995a3" stroke-width="5" stroke-linecap="round"/><path d="M313.19,196.14 L322.61,195.03" stroke="#8995a3" stroke-width="5" stroke-linecap="round"/><path d="M282.32,217.22 L277.98,223.47" stroke="#8995a3" stroke-width="5" stroke-linecap="round"/><path d="M276.73,213.34 L272.39,219.60" stroke="#8995a3" stroke-width="5" stroke-linecap="round"/><path d="M322.61,195.03 L332.02,193.93" stroke="#8995a3" stroke-width="5" stroke-linecap="round"/><path d="M332.02,193.93 L341.44,192.82" stroke="#8995a3" stroke-width="5" stroke-linecap="round"/><path d="M277.98,223.47 L273.64,229.73" stroke="#8995a3" stroke-width="5" stroke-linecap="round"/><path d="M272.39,219.60 L268.06,225.85" stroke="#8995a3" stroke-width="5" stroke-linecap="round"/><path d="M341.44,192.82 L350.86,191.71" stroke="#8995a3" stroke-width="5" stroke-linecap="round"/><path d="M273.64,229.73 L269.30,235.99" stroke="#8995a3" stroke-width="5" stroke-linecap="round"/><path d="M268.06,225.85 L263.72,232.11" stroke="#8995a3" stroke-width="5" stroke-linecap="round"/><path d="M350.86,191.71 L360.27,190.60" stroke="#8995a3" stroke-width="5" stroke-linecap="round"/><circle cx="374.60" cy="188.92" r="15.68" fill="url(#a8)" stroke="#c9434c" stroke-width="1"/><text x="374.60" y="189.32" text-anchor="middle" dominant-baseline="central" fill="white" font-family="Arial,sans-serif" font-size="20.38" font-weight="bold">O</text><path d="M269.30,235.99 L264.97,242.24" stroke="#8995a3" stroke-width="5" stroke-linecap="round"/><path d="M263.72,232.11 L259.38,238.37" stroke="#8995a3" stroke-width="5" stroke-linecap="round"/><path d="M264.97,242.24 L260.63,248.50" stroke="#8995a3" stroke-width="5" stroke-linecap="round"/><path d="M259.38,238.37 L255.04,244.62" stroke="#8995a3" stroke-width="5" stroke-linecap="round"/><circle cx="249.81" cy="258.13" r="15.68" fill="url(#a8)" stroke="#c9434c" stroke-width="1"/><text x="249.81" y="258.53" text-anchor="middle" dominant-baseline="central" fill="white" font-family="Arial,sans-serif" font-size="20.38" font-weight="bold">O</text></svg>
